# AST/ASF file generated using VICON BodyLanguage
# -----------------------------------------------
:version 1.10
:name VICON
:units
  mass 1.0
  length 0.45
  angle deg
:documentation
   .ast/.asf automatically generated from VICON data using
   VICON BodyBuilder and BodyLanguage model FoxedUp or BRILLIANT.MOD
:root
   order TX TY TZ RX RY RZ
   axis XYZ
   position 0 0 0  
   orientation 0 0 0 
:bonedata
  begin
     id 1 
     name lhipjoint
     direction 0.621563 -0.714088 0.322083 
     length 2.21591 
     axis 0 0 0  XYZ
  end
  begin
     id 2 
     name lfemur
     direction 0.34202 -0.939693 0  
     length 6.84027  
     axis 0 0 20  XYZ
    dof rx ry rz
    limits (-160.0 20.0)
           (-70.0 70.0)
           (-60.0 70.0)
  end
  begin
     id 3 
     name ltibia
     direction 0.34202 -0.939693 0   
     length 6.74005   
     axis 0 0 20   XYZ
    dof rx
    limits (-10.0 170.0)
  end
  begin
     id 4 
     name lfoot
     direction 0.0348332 -0.0960526 0.994767   
     length 1.54672   
     axis -90 7.62852e-016 20   XYZ
    dof rx rz
    limits (-45.0 90.0)
           (-70.0 20.0)
  end
  begin
     id 5 
     name ltoes
     direction 1.53538e-011 -4.22089e-011 1   
     length 0.792077   
     axis -90 7.62852e-016 20   XYZ
    dof rx
    limits (-90.0 20.0)
  end
  begin
     id 6 
     name rhipjoint
     direction -0.648389 -0.693984 0.313015   
     length 2.2801  
     axis 0 0 0  XYZ 
  end
  begin
     id 7 
     name rfemur
     direction -0.34202 -0.939693 0   
     length 6.62341   
     axis 0 0 -20   XYZ
    dof rx ry rz
    limits (-160.0 20.0)
           (-70.0 70.0)
           (-70.0 60.0)
  end
  begin
     id 8 
     name rtibia
     direction -0.34202 -0.939693 0   
     length 6.63811   
     axis 0 0 -20   XYZ
    dof rx
    limits (-10.0 170.0)
 end
 begin
     id 9 
     name rfoot
     direction -0.0578404 -0.158915 0.985596   
     length 1.64992  
     axis -90 -7.62852e-016 -20   XYZ
    dof rx rz
    limits (-45.0 90.0)
           (-20.0 70.0)
  end
  begin
     id 10 
     name rtoes
     direction -1.53571e-011 -4.21911e-011 1   
     length 0.839909   
     axis -90 -7.62852e-016 -20   XYZ
    dof rx
    limits (-90.0 20.0)
  end
  begin
     id 11 
     name lowerback
     direction 0.000554472 0.999997 -0.00226605   
     length 1.81878   
     axis 0 0 0   XYZ
    dof rx ry rz
    limits (-20.0 45.0)
           (-30.0 30.0)
           (-30.0 30.0)
  end
  begin
     id 12 
     name upperback
     direction 0.00177008 0.999761 -0.021771   
     length 1.81977   
     axis 0 0 0   XYZ
    dof rx ry rz
    limits (-20.0 45.0)
           (-30.0 30.0)
           (-30.0 30.0)
  end
  begin
     id 13 
     name thorax
     direction 0.00134147 0.999799 -0.0200243   
     length 1.81422   
     axis 0 0 0   XYZ
    dof rx ry rz
    limits (-20.0 45.0)
           (-30.0 30.0)
           (-30.0 30.0)
  end
  begin
     id 14 
     name lowerneck
     direction -0.0819714 0.987506 0.134583   
     length 1.68295   
     axis 0 0 0   XYZ
    dof rx ry rz
    limits (-20.0 45.0)
           (-30.0 30.0)
           (-30.0 30.0)
  end
  begin
     id 15 
     name upperneck
     direction 0.0867129 0.969666 -0.228538   
     length 1.71188   
     axis 0 0 0   XYZ
    dof rx ry rz
    limits (-20.0 45.0)
           (-30.0 30.0)
           (-30.0 30.0)
  end
  begin
     id 16
     name head
     direction 0.023699 0.995021 -0.0968101  
     length 1.73365  
     axis 0 0 0   XYZ
    dof rx ry rz
    limits (-20.0 45.0)
           (-30.0 30.0)
           (-30.0 30.0)
  end
  begin
     id 17 
     name lclavicle
     direction 0.912847 0.398248 0.090054  
     length 3.56518  
     axis 0 0 0   XYZ
    dof ry rz
    limits (-20.0 10.0)
           (0.0 20.0)
  end
  begin
     id 18 
     name lhumerus
     direction 1 -4.48961e-011 -4.05442e-028   
     length 4.05444   
     axis 180 -30 -90   XYZ
    dof rx ry rz
    limits (-60.0 90.0)
           (-90.0 90.0)
           (-90.0 90.0)
  end
  begin
     id 19
     name lradius
     direction 1 -4.4897e-011 1.54979e-027   
     length 3.21205   
     axis 180 -30 -90   XYZ
    dof rx
    limits (-10.0 170.0)
  end
  begin
     id 20
     name lwrist
     direction 1 -4.48979e-011 1.55564e-027   
     length 1.60602   
     axis -1.61768e-015 90 90   XYZ
    dof ry
    limits (-180.0 0.0)
 end
  begin
     id 21 
     name lhand
     direction 1 -4.48877e-011 3.11128e-027   
     length 0.707407   
     axis -1.98526e-015 90 90   XYZ
    dof rx rz
    limits (-90.0 90.0)
           (-45.0 45.0)
  end
  begin
     id 22 
     name lfingers
     direction 1 -4.49016e-011 6.22255e-027   
     length 0.57033   
     axis -3.97052e-015 90 90   XYZ
    dof rx
    limits (0.0 90.0)
  end
  begin
     id 23
     name lthumb
     direction 0.707107 -6.35011e-011 0.707107   
     length 0.818883   
     axis -90 45 2.85299e-015   XYZ
    dof rx rz
    limits (-45.0 45.0)
           (-45.0 45.0)
  end
  begin
     id 24 
     name rclavicle
     direction -0.930415 0.353791 0.0957082   
     length 3.54688  
     axis 0 0 0   XYZ 
    dof ry rz
    limits (-10.0 20.0)
           (-20.0 0.0)
  end
  begin
     id 25 
     name rhumerus
     direction -1 -4.48952e-011 -8.4136e-018  
     length 3.74048   
     axis 180 30 90   XYZ
    dof rx ry rz
    limits (-90.0 60.0)
           (-90.0 90.0)
           (-90.0 90.0)
  end
  begin
     id 26 
     name rradius
     direction -1 -4.48964e-011 1.66692e-027   
     length 3.1603   
     axis 180 30 90   XYZ
    dof rx
    limits (-10.0 170.0)
  end
  begin
     id 27 
     name rwrist
     direction -1 -4.49008e-011 1.55564e-027   
     length 1.58015   
     axis -1.61768e-015 -90 -90   XYZ
    dof ry
    limits (-180.0 0.0)
  end
  begin
     id 28
     name rhand
     direction -1 -4.48922e-011 3.11128e-027   
     length 0.717028   
     axis -1.98526e-015 -90 -90   XYZ
    dof rx rz
    limits (-90.0 90.0)
           (-45.0 45.0)
  end
  begin
     id 29
     name rfingers
     direction -1 -4.49002e-011 6.22255e-027   
     length 0.578086   
     axis -3.97052e-015 -90 -90   XYZ
    dof rx
    limits (0.0 90.0)
  end
  begin
     id 30
     name rthumb
     direction -0.707107 -6.34899e-011 0.707107   
     length 0.83002   
     axis -90 -45 -2.85299e-015   XYZ
    dof rx rz
    limits (-45.0 45.0)
           (-45.0 45.0)
  end
:hierarchy
  begin
    root lhipjoint rhipjoint lowerback
    lhipjoint lfemur
    lfemur ltibia
    ltibia lfoot
    lfoot ltoes
    rhipjoint rfemur
    rfemur rtibia
    rtibia rfoot
    rfoot rtoes
    lowerback upperback
    upperback thorax
    thorax lowerneck lclavicle rclavicle
    lowerneck upperneck
    upperneck head
    lclavicle lhumerus
    lhumerus lradius
    lradius lwrist
    lwrist lhand lthumb
    lhand lfingers
    rclavicle rhumerus
    rhumerus rradius
    rradius rwrist
    rwrist rhand rthumb
    rhand rfingers
  end

#!OML:ASF G:\acrobat\cartwheel_test\acrobat_wednesday\Session 1\acrobatwednesday.ASF
:FULLY-SPECIFIED
:DEGREES
215
root -10.6767 15.8859 -10.4078 -529.078 112.919 -185.216
lowerback 4.25323 1.0047 -3.44688
upperback 0.80653 1.17733 -1.21789
thorax -1.59868 0.608313 0.615403
lowerneck -25.4085 -1.48682 -4.79718
upperneck 35.4871 -0.0295023 1.60691
head 17.3111 -0.257713 1.6132
rclavicle -1.21259e-014 -1.43125e-014
rhumerus -47.5781 -35.8589 -55.446
rradius 18.3999
rwrist 43.4993
rhand -30.0275 -352.396
rfingers 7.12502
rthumb -3.34406 -742.349
lclavicle -1.21259e-014 -1.43125e-014
lhumerus -192.441 173.611 -99.2171
lradius 27.3291
lwrist 22.8485
lhand -29.6467 -384.614
lfingers 7.12502
lthumb -2.97629 5.34497
rfemur -9.39166 -16.7712 14.6143
rtibia 65.0905
rfoot -4.40083 -18.8756
rtoes 8.30565
lfemur -17.7267 -5.73493 -18.2563
ltibia 41.5518
lfoot -22.2433 -4.87204
ltoes 52.4084
216
root -10.9098 16.0378 -10.4712 -529.635 113.705 -186.182
lowerback 3.43565 1.1005 -2.54302
upperback 0.667495 1.36675 -1.45433
thorax -1.26435 0.695388 -0.127564
lowerneck -25.565 -1.44961 -4.86932
upperneck 35.6193 0.213674 1.2795
head 17.4122 -0.223343 1.53295
rclavicle 1.78906e-014 1.27222e-014
rhumerus -44.8298 -31.9627 -62
rradius 19.7416
rwrist 42.5157
rhand -30.108 -352.125
rfingers 7.12502
rthumb -3.4218 -742.077
lclavicle 1.78906e-014 1.27222e-014
lhumerus -194.268 174.224 -99.7702
lradius 29.198
lwrist 23.9346
lhand -29.8073 -384.268
lfingers 7.12502
lthumb -3.13134 5.68859
rfemur -5.46664 -16.6393 16.6738
rtibia 55.2082
rfoot -14.119 -9.5248
rtoes -13.2979
lfemur -18.7093 -5.02341 -17.4209
ltibia 40.8555
lfoot -6.14977 -6.22441
ltoes 61.9707
217
root -11.1609 16.1698 -10.5475 -530.111 114.579 -187.276
lowerback 2.7434 1.23774 -1.43882
upperback 0.434638 1.59735 -1.69222
thorax -1.08275 0.80531 -0.985604
lowerneck -25.4521 -1.36647 -4.76593
upperneck 35.2716 0.417754 0.895438
head 17.1943 -0.184331 1.37694
rclavicle 3.85642e-014 -7.15625e-015
rhumerus -42.5926 -27.1991 -68.1837
rradius 21.8416
rwrist 38.7519
rhand -29.5326 -352.293
rfingers 7.12502
rthumb -2.86612 -742.254
lclavicle 3.85642e-014 -7.15625e-015
lhumerus -196.118 174.323 -100.357
lradius 30.8524
lwrist 24.6765
lhand -29.8942 -384.307
lfingers 7.12502
lthumb -3.21525 5.64809
rfemur -1.90926 -14.3882 18.8931
rtibia 45.0839
rfoot -12.4059 -10.9014
rtoes 7.67765
lfemur -20.5178 -4.03678 -16.5291
ltibia 41.1038
lfoot 5.34077 -13.6205
ltoes 66.0252
218
root -11.4262 16.266 -10.6293 -530.159 115.719 -187.891
lowerback 2.51892 1.45012 -0.579486
upperback 0.281731 1.90353 -1.94108
thorax -1.07543 0.954486 -1.72888
lowerneck -26.0878 -1.27473 -4.61694
upperneck 34.8837 0.608355 0.570005
head 17.1393 -0.144366 1.23891
rclavicle -3.57812e-014 -3.49861e-014
rhumerus -40.6998 -22.464 -73.4712
rradius 24.3814
rwrist 33.4859
rhand -28.8918 -351.944
rfingers 7.12502
rthumb -2.24718 -741.911
lclavicle -3.57812e-014 -3.49861e-014
lhumerus -197.738 174.08 -100.918
lradius 32.3385
lwrist 25.5526
lhand -29.5518 -384.239
lfingers 7.12502
lthumb -2.88464 5.72132
rfemur 1.28908 -11.2412 21.1821
rtibia 35.2995
rfoot -16.3838 -9.99904
rtoes 8.55613
lfemur -22.7248 -2.68868 -15.8465
ltibia 41.9814
lfoot 10.9957 6.93004
ltoes -12.3517
219
root -11.701 16.3282 -10.7118 -529.478 117.103 -187.675
lowerback 2.26405 1.6722 -0.188356
upperback 0.161145 2.20982 -2.20519
thorax -1.02329 1.10584 -2.22291
lowerneck -26.319 -1.09889 -4.45658
upperneck 34.1369 0.901076 0.179276
head 16.8018 -0.064727 1.08759
rclavicle 4.73108e-014 7.95139e-016
rhumerus -39.4798 -17.8826 -77.5707
rradius 27.3082
rwrist 28.1028
rhand -28.0092 -350.818
rfingers 7.12502
rthumb -1.39482 -740.794
lclavicle 4.73108e-014 7.95139e-016
lhumerus -199.381 173.506 -101.531
lradius 33.5945
lwrist 26.5966
lhand -28.8932 -383.984
lfingers 7.12502
lthumb -2.24859 5.98406
rfemur 3.88332 -7.66895 23.1055
rtibia 26.9194
rfoot -21.1039 -4.94115
rtoes 9.80323
lfemur -25.032 -1.14252 -15.573
ltibia 43.2564
lfoot 9.09409 7.04939
ltoes -15.587
220
root -11.9757 16.3417 -10.8007 -530.455 118.667 -188.859
lowerback 2.3788 1.95128 0.968356
upperback 0.252832 2.61042 -2.24464
thorax -0.925224 1.30252 -2.92538
lowerneck -26.4226 -0.847952 -4.48051
upperneck 33.0962 1.3235 -0.115633
head 16.2939 0.0641781 1.03744
rclavicle 2.70347e-014 6.36111e-015
rhumerus -38.2848 -14.1269 -80.3941
rradius 29.964
rwrist 23.6685
rhand -26.5992 -350.115
rfingers 7.12502
rthumb -0.0330099 -740.094
lclavicle 2.70347e-014 6.36111e-015
lhumerus -200.648 172.836 -102.047
lradius 34.4557
lwrist 27.4884
lhand -28.7348 -383.64
lfingers 7.12502
lthumb -2.09555 6.32962
rfemur 6.15798 -4.74631 25.5198
rtibia 21.508
rfoot -23.3566 -2.16496
rtoes 15.0124
lfemur -27.1325 0.924581 -14.5179
ltibia 45.0699
lfoot 7.07654 7.70807
ltoes -22.8049
221
root -12.2405 16.32 -10.8976 -530.287 120.387 -188.781
lowerback 2.47607 2.25262 1.61776
upperback 0.32194 3.02934 -2.36283
thorax -0.844483 1.5119 -3.42486
lowerneck -26.2984 -0.547582 -4.49923
upperneck 31.8938 1.84108 -0.543224
head 15.6767 0.223791 0.949136
rclavicle -3.89618e-014 -1.19271e-014
rhumerus -37.2424 -10.8924 -82.1244
rradius 32.4954
rwrist 19.9245
rhand -25.2908 -350.144
rfingers 7.12502
rthumb 1.23074 -740.12
lclavicle -3.89618e-014 -1.19271e-014
lhumerus -201.723 172.297 -102.321
lradius 34.8704
lwrist 28.104
lhand -29.0809 -383.454
lfingers 7.12502
lthumb -2.42987 6.51181
rfemur 8.21384 -1.79855 26.9164
rtibia 16.4125
rfoot -25.8361 1.7474
rtoes 18.2874
lfemur -29.4631 3.13818 -14.2725
ltibia 47.3574
lfoot 1.08377 -9.90615
ltoes 64.7147
